<?xml version="1.0" standalone="no"?>
<!DOCTYPE svg PUBLIC "-//W3C//DTD SVG 20010904//EN"
 "http://www.w3.org/TR/2001/REC-SVG-20010904/DTD/svg10.dtd">
<svg version="1.0" xmlns="http://www.w3.org/2000/svg"
 width="400.000000pt" height="100.000000pt" viewBox="0 0 400.000000 100.000000"
 preserveAspectRatio="xMidYMid meet">

<g transform="translate(0.000000,100.000000) scale(0.100000,-0.100000)"
fill="#000000" stroke="none">
<path d="M489 756 c-131 -47 -212 -160 -212 -296 0 -223 230 -373 434 -283 44
20 119 82 119 99 0 5 -99 74 -220 154 -121 80 -220 147 -220 150 0 3 91 23
203 44 111 21 206 42 210 46 12 11 -53 58 -113 81 -58 22 -148 24 -201 5z"/>
<path d="M1133 651 c-48 -12 -103 -58 -124 -105 -75 -165 96 -334 259 -255 53
26 59 39 36 78 l-18 30 -28 -24 c-62 -52 -143 -35 -181 39 -17 32 -18 43 -8
76 25 85 125 119 189 65 l30 -25 16 25 c24 36 20 49 -22 73 -45 25 -104 34
-149 23z"/>
<path d="M1390 465 l0 -196 33 3 32 3 0 190 0 190 -32 3 -33 3 0 -196z"/>
<path d="M3812 651 c-8 -4 -12 -21 -10 -37 2 -23 8 -29 27 -29 31 0 50 28 35
53 -13 20 -34 25 -52 13z"/>
<path d="M2940 483 c0 -90 5 -147 13 -163 18 -37 74 -62 121 -55 54 8 57 11
38 45 -13 23 -24 30 -49 30 -41 0 -53 21 -53 94 l0 56 40 0 c38 0 40 2 40 30
0 28 -2 30 -40 30 -39 0 -40 1 -40 35 0 33 -2 35 -35 35 l-35 0 0 -137z"/>
<path d="M780 581 c0 -5 6 -14 14 -20 11 -9 15 -7 19 9 4 15 0 20 -14 20 -10
0 -19 -4 -19 -9z"/>
<path d="M770 546 c0 -2 7 -7 16 -10 8 -3 12 -2 9 4 -6 10 -25 14 -25 6z"/>
<path d="M1583 535 c-63 -27 -94 -128 -60 -195 30 -59 112 -85 186 -59 36 13
37 16 12 48 -12 16 -21 20 -25 12 -13 -20 -73 -13 -96 12 l-21 22 105 3 106 3
0 32 c0 103 -107 166 -207 122z m108 -64 c13 -11 21 -22 18 -26 -4 -3 -35 -5
-70 -3 l-64 3 23 23 c27 27 62 28 93 3z"/>
<path d="M1888 533 c-40 -25 -48 -54 -48 -164 l0 -100 33 3 32 3 3 89 c3 96
11 116 48 116 43 0 54 -24 54 -121 l0 -89 35 0 35 0 0 86 c0 101 9 124 50 124
41 0 50 -23 50 -125 l0 -86 33 3 32 3 3 80 c5 135 -20 183 -102 192 -33 4 -53
1 -72 -11 -24 -16 -28 -16 -59 -2 -42 20 -93 20 -127 -1z"/>
<path d="M2363 530 c-64 -39 -86 -104 -59 -175 24 -63 69 -89 142 -83 67 6 83
18 64 52 -10 20 -17 23 -31 16 -36 -20 -109 1 -109 31 0 5 44 9 100 9 107 0
104 -2 100 55 -5 91 -124 146 -207 95z m111 -56 c27 -27 18 -34 -44 -34 -64 0
-74 9 -38 34 29 20 62 20 82 0z"/>
<path d="M2705 543 c-59 -14 -85 -74 -85 -195 l0 -78 35 0 35 0 0 83 c0 100
14 127 65 127 19 0 37 -6 42 -12 4 -7 10 -53 13 -103 l5 -90 33 -3 32 -3 0
103 c0 80 -4 109 -16 127 -29 40 -96 59 -159 44z"/>
<path d="M3215 531 c-46 -28 -66 -56 -72 -99 -12 -93 47 -162 141 -162 87 0
146 57 146 143 0 99 -131 171 -215 118z m119 -67 c50 -49 13 -134 -59 -134
-23 0 -55 34 -61 65 -12 64 75 115 120 69z"/>
<path d="M3551 537 c-61 -22 -76 -55 -76 -165 l0 -97 31 -3 32 -3 3 91 c4 98
16 120 64 120 48 0 60 -22 64 -120 l3 -91 32 3 c31 3 31 3 34 68 3 86 -16 158
-48 181 -33 24 -97 32 -139 16z"/>
<path d="M3800 409 l0 -140 33 3 32 3 3 138 3 137 -36 0 -35 0 0 -141z"/>
<path d="M810 460 c0 -11 2 -20 4 -20 2 0 6 9 9 20 3 11 1 20 -4 20 -5 0 -9
-9 -9 -20z"/>
<path d="M841 414 c0 -11 3 -14 6 -6 3 7 2 16 -1 19 -3 4 -6 -2 -5 -13z"/>
<path d="M3930 315 c0 -8 4 -15 10 -15 5 0 7 7 4 15 -4 8 -8 15 -10 15 -2 0
-4 -7 -4 -15z"/>
</g>
</svg>
